<svg xmlns="http://www.w3.org/2000/svg" width="49.192" height="49" viewBox="0 0 49.192 49">
  <g id="check-list" transform="translate(0 -1)">
    <path id="Path_295" data-name="Path 295" d="M64.718,180.209l-3.057,3.057-1.019-1.019a1.441,1.441,0,0,0-2.038,2.038l2.038,2.038a1.441,1.441,0,0,0,2.038,0l4.076-4.076a1.441,1.441,0,0,0-2.038-2.038Z" transform="translate(-52.591 -161.609)" fill="#932771"/>
    <path id="Path_296" data-name="Path 296" d="M64.718,280.209l-3.057,3.057-1.019-1.019a1.441,1.441,0,0,0-2.038,2.038l2.038,2.038a1.441,1.441,0,0,0,2.038,0l4.076-4.076a1.441,1.441,0,0,0-2.038-2.038Z" transform="translate(-52.591 -252.001)" fill="#932771"/>
    <path id="Path_297" data-name="Path 297" d="M64.718,380.209l-3.057,3.057-1.019-1.019a1.441,1.441,0,1,0-2.038,2.038l2.038,2.038a1.441,1.441,0,0,0,2.038,0l4.076-4.076a1.441,1.441,0,0,0-2.038-2.038Z" transform="translate(-52.591 -342.394)" fill="#932771"/>
    <path id="Path_298" data-name="Path 298" d="M35.549,20.269V8.206a4.328,4.328,0,0,0-4.324-4.324H25.906A3.368,3.368,0,0,0,22.578,1H12.971A3.368,3.368,0,0,0,9.643,3.882H4.324A4.328,4.328,0,0,0,0,8.206V45.676A4.328,4.328,0,0,0,4.324,50H34.3a14.892,14.892,0,0,0,1.249-29.731ZM14.412,9.647h6.725v2.4a.481.481,0,0,1-.48.48H14.892a.481.481,0,0,1-.48-.48ZM12.49,4.363a.481.481,0,0,1,.48-.48h9.608a.481.481,0,0,1,.48.48V6.284a.481.481,0,0,1-.48.48H12.971a.481.481,0,0,1-.48-.48ZM4.324,47.118a1.443,1.443,0,0,1-1.441-1.441V8.206A1.443,1.443,0,0,1,4.324,6.765H9.643a3.372,3.372,0,0,0,1.887,2.557v2.727a3.367,3.367,0,0,0,3.363,3.363h5.765a3.367,3.367,0,0,0,3.363-3.363V9.322a3.372,3.372,0,0,0,1.887-2.557h5.319a1.443,1.443,0,0,1,1.441,1.441v12.1a14.786,14.786,0,0,0-3.055.667,1.441,1.441,0,0,0-1.268-.757H17.774a1.441,1.441,0,0,0,0,2.882h7.731a14.968,14.968,0,0,0-5.128,6.725h-2.6a1.441,1.441,0,1,0,0,2.882H19.6a14.909,14.909,0,0,0,.446,6.725H17.774a1.441,1.441,0,0,0,0,2.882h3.5a15,15,0,0,0,4.234,4.8Zm29.976,0a12.01,12.01,0,1,1,12.01-12.01A12.023,12.023,0,0,1,34.3,47.118Z" fill="#932771"/>
    <path id="Path_299" data-name="Path 299" d="M270.735,259.647h-1.586a7.166,7.166,0,0,0-1.052-2.53l1.125-1.125a1.441,1.441,0,1,0-2.038-2.038l-1.124,1.125a7.162,7.162,0,0,0-2.53-1.052v-1.586a1.441,1.441,0,1,0-2.882,0v1.586a7.167,7.167,0,0,0-2.53,1.052l-1.125-1.125a1.441,1.441,0,0,0-2.038,2.038l1.125,1.125a7.165,7.165,0,0,0-1.052,2.53h-1.586a1.441,1.441,0,1,0,0,2.882h1.586a7.167,7.167,0,0,0,1.052,2.53l-1.125,1.124a1.441,1.441,0,1,0,2.038,2.038l1.124-1.125a7.163,7.163,0,0,0,2.53,1.052v1.586a1.441,1.441,0,1,0,2.882,0v-1.586a7.166,7.166,0,0,0,2.53-1.052l1.124,1.125a1.441,1.441,0,0,0,2.038-2.038l-1.125-1.124a7.163,7.163,0,0,0,1.052-2.53h1.586a1.441,1.441,0,0,0,0-2.882Zm-8.647,5.765a4.324,4.324,0,1,1,4.324-4.324A4.328,4.328,0,0,1,262.088,265.412Z" transform="translate(-227.788 -225.98)" fill="#932771"/>
    <circle id="Ellipse_11" data-name="Ellipse 11" cx="1.502" cy="1.502" r="1.502" transform="translate(32.77 33.578)" fill="#932771"/>
  </g>
</svg>
