<svg height="" viewBox="0 0 512 512" width="" xmlns="http://www.w3.org/2000/svg"><path d="m466 382v-80.078125h-190v-40.949219c17.171875-4.007812 30-19.421875 30-37.785156v-24.734375c0-14.257813 6.128906-23.066406 14.613281-35.261719 11.253907-16.171875 25.246094-36.285156 25.386719-71.699218v-.539063h-.003906c-.132813-24.222656-9.324219-46.917969-25.917969-63.964844-16.941406-17.402343-39.738281-26.988281-64.195313-26.988281-50.484374 0-91.589843 40.75-91.878906 90.953125l-.003906.539063c.148438 35.667968 14.890625 55.847656 26.746094 72.074218 9.1875 12.578125 15.253906 20.882813 15.253906 34.886719v24.734375c0 18.425781 12.84375 33.886719 30 37.828125v40.90625h-190v80.078125h-46v130h130v-130h-44v-40.078125h150v40.078125h-45v130h130v-130h-45v-40.078125h150v40.078125h-44v130h130v-130zm-220-180h20v20h-20zm-42-110.742188c.128906-28.285156 23.351562-51.257812 51.882812-51.257812 28.027344 0 50 22.496094 50.117188 51.257812-.074219 23.003907-8.488281 35.097657-18.222656 49.089844-4.574219 6.578125-9.421875 13.550782-13.378906 21.652344h-37.109376c-4.199218-8.265625-9.367187-15.351562-14.246093-22.027344-10.171875-13.925781-18.964844-25.960937-19.042969-48.714844zm-114 380.742188h-50v-50h50zm191 0h-50v-50h50zm191 0h-50v-50h50zm-72.417969-270.140625-42.441406-21.375 17.992187-35.722656 42.441407 21.371093zm-16.449219-145.125-17.992187-35.722656 41.441406-20.871094 17.992188 35.726563zm2.867188 25.265625h46v40h-46zm-252.132812 62.761719 17.992187 35.722656-42.441406 21.375-17.992188-35.726563zm-8-88.027344-41.441407-20.867187 17.992188-35.726563 41.441406 20.871094zm-2.867188 65.265625h-46v-40h46zm0 0"/></svg>