<svg xmlns="http://www.w3.org/2000/svg" width="52.667" height="52.667" viewBox="0 0 52.667 52.667">
  <g id="easy-installation" transform="translate(0)">
    <path id="Path_277" data-name="Path 277" d="M111.829,100a11.829,11.829,0,1,0,11.829,11.829A11.843,11.843,0,0,0,111.829,100Zm0,20.573a8.743,8.743,0,1,1,8.743-8.743A8.753,8.753,0,0,1,111.829,120.573Z" transform="translate(-89.714 -89.714)" fill="#932771"/>
    <path id="Path_278" data-name="Path 278" d="M40.837,29.008c-.343,0-.682.016-1.017.044.183-.466.35-.939.5-1.418h2.374a1.543,1.543,0,0,0,1.543-1.543v-7.95A1.543,1.543,0,0,0,42.689,16.6H40.315a18.866,18.866,0,0,0-1.43-3.446l1.681-1.681a1.543,1.543,0,0,0,0-2.182L34.942,3.666a1.543,1.543,0,0,0-2.182,0L31.079,5.347a18.861,18.861,0,0,0-3.445-1.43V1.543A1.543,1.543,0,0,0,26.091,0h-7.95A1.543,1.543,0,0,0,16.6,1.543V3.917a18.862,18.862,0,0,0-3.446,1.43L11.471,3.666a1.543,1.543,0,0,0-2.182,0L3.666,9.289a1.543,1.543,0,0,0,0,2.182l1.681,1.681A18.855,18.855,0,0,0,3.917,16.6H1.543A1.543,1.543,0,0,0,0,18.141v7.95a1.543,1.543,0,0,0,1.543,1.543H3.917a18.87,18.87,0,0,0,1.43,3.446L3.666,32.76a1.543,1.543,0,0,0,0,2.182l5.623,5.623a1.543,1.543,0,0,0,2.182,0l1.681-1.681a18.861,18.861,0,0,0,3.445,1.43v2.374a1.543,1.543,0,0,0,1.543,1.543h7.95a1.543,1.543,0,0,0,1.543-1.543V40.315c.479-.145.952-.312,1.418-.5-.029.335-.044.675-.044,1.017A11.829,11.829,0,1,0,40.837,29.008Zm-15.1,8.621a1.543,1.543,0,0,0-1.193,1.5v2.014H19.684V39.132a1.543,1.543,0,0,0-1.193-1.5,15.8,15.8,0,0,1-4.777-1.982,1.542,1.542,0,0,0-1.906.219L10.38,37.293,6.939,33.851l1.427-1.427a1.543,1.543,0,0,0,.219-1.906A15.8,15.8,0,0,1,6.6,25.741a1.543,1.543,0,0,0-1.5-1.193H3.086V19.684H5.1A1.543,1.543,0,0,0,6.6,18.49a15.8,15.8,0,0,1,1.982-4.777,1.543,1.543,0,0,0-.219-1.906L6.939,10.38,10.38,6.939l1.427,1.427a1.543,1.543,0,0,0,1.906.219A15.807,15.807,0,0,1,18.49,6.6a1.543,1.543,0,0,0,1.193-1.5V3.086h4.864V5.1a1.543,1.543,0,0,0,1.193,1.5,15.8,15.8,0,0,1,4.777,1.982,1.543,1.543,0,0,0,1.906-.219l1.427-1.427,3.441,3.441-1.427,1.427a1.543,1.543,0,0,0-.219,1.906,15.8,15.8,0,0,1,1.982,4.777,1.543,1.543,0,0,0,1.5,1.193h2.014v4.864H39.131a1.543,1.543,0,0,0-1.5,1.193A15.781,15.781,0,0,1,35.9,30.087,11.9,11.9,0,0,0,30.087,35.9a15.785,15.785,0,0,1-4.346,1.725Zm15.1,11.952a8.743,8.743,0,1,1,8.743-8.743A8.753,8.753,0,0,1,40.837,49.581Z" fill="#932771"/>
    <path id="Path_279" data-name="Path 279" d="M357.179,361.239l-3.273,3.273-1.06-1.06a1.572,1.572,0,0,0-2.159-.082,1.543,1.543,0,0,0-.054,2.234l2.182,2.182a1.543,1.543,0,0,0,2.182,0l4.364-4.364a1.543,1.543,0,1,0-2.182-2.182Z" transform="translate(-314.16 -323.674)" fill="#932771"/>
  </g>
</svg>
