<?xml version="1.0" encoding="iso-8859-1"?>
<!-- Generator: Adobe Illustrator 19.0.0, SVG Export Plug-In . SVG Version: 6.00 Build 0)  -->
<svg version="1.1" id="Layer_1" xmlns="http://www.w3.org/2000/svg" xmlns:xlink="http://www.w3.org/1999/xlink" x="0px" y="0px"
	 viewBox="0 0 512 512" style="enable-background:new 0 0 512 512;" xml:space="preserve">
<g>
	<g>
		<path d="M362,362v150h150V362H362z M482,482h-90v-90h90V482z"/>
	</g>
</g>
<g>
	<g>
		<path d="M482,60H150V0H0v150h150V90h332v151h-85.458v-30.557L351,255.997l45.542,45.564V271H482c16.542,0,30-13.458,30-30V90
			C512,73.458,498.542,60,482,60z M120,120H30V30h90V120z"/>
	</g>
</g>
<g>
	<g>
		<path d="M342,436.997l-45.542-45.553V422H31V271h150v60h150V181H181v60H31c-16.542,0-30,13.458-30,30v151
			c0,16.542,13.458,30,30,30h265.458v30.561L342,436.997z M211,211h90v90h-90V211z"/>
	</g>
</g>

</svg>
