<svg xmlns="http://www.w3.org/2000/svg" width="91.195" height="74" viewBox="0 0 91.195 74">
  <g id="Group_843" data-name="Group 843" transform="translate(0)">
    <path id="Path_1" data-name="Path 1" d="M30.489,1.7a3.474,3.474,0,0,1,5.98,0l30,50.695a3.474,3.474,0,0,1-2.99,5.243h-60A3.474,3.474,0,0,1,.49,52.4Z" transform="translate(91.195 7.042) rotate(90)" fill="#9b8fbd"/>
    <path id="Path_2" data-name="Path 2" d="M13.961,1.745a3.474,3.474,0,0,1,6.026,0L33.482,25.26a3.474,3.474,0,0,1-3.013,5.2H3.479a3.474,3.474,0,0,1-3.013-5.2Z" transform="translate(0 33.948) rotate(-90)" fill="#eb204a"/>
    <path id="Polygon_3" data-name="Polygon 3" d="M6.967,3.039a2,2,0,0,1,3.473,0l5.258,9.2a2,2,0,0,1-1.736,2.992H3.446A2,2,0,0,1,1.71,12.24Z" transform="translate(15.232 55.806) rotate(-90)" fill="#e7e4e8"/>
  </g>
</svg>
