<svg xmlns="http://www.w3.org/2000/svg" width="185" height="196.649" viewBox="0 0 185 196.649">
  <g id="Group_851" data-name="Group 851" transform="translate(-1101 -2915)">
    <g id="Path_291" data-name="Path 291" transform="translate(1101 2995.373)" fill="none">
      <path d="M63.445,112.837a7.347,7.347,0,0,0,12.443,0l62.426-102.26A7.009,7.009,0,0,0,132.093,0H7.24A7.009,7.009,0,0,0,1.019,10.577Z" stroke="none"/>
      <path d="M 69.66673278808594 105.7560195922852 L 128.7329254150391 8.999998092651367 L 10.6005916595459 8.999998092651367 L 69.66673278808594 105.7560195922852 M 69.66674041748047 116.2762908935547 C 67.2557373046875 116.2762908935547 64.84473419189453 115.1299667358398 63.44516372680664 112.8373336791992 L 1.018803596496582 10.57699775695801 C -1.833029747009277 5.905415058135986 1.640636920928955 -1.844618054747116e-06 7.240386962890625 -1.844618054747116e-06 L 132.0931396484375 -1.844618054747116e-06 C 137.6928253173828 -1.844618054747116e-06 141.1665191650391 5.905415058135986 138.314697265625 10.57699775695801 L 75.88832855224609 112.8373336791992 C 74.48874664306641 115.1299667358398 72.07774353027344 116.2762908935547 69.66674041748047 116.2762908935547 Z" stroke="none" fill="#f2edf2"/>
    </g>
    <path id="Path_292" data-name="Path 292" d="M38.452,2.15a4.382,4.382,0,0,1,7.541,0L83.829,66.085A4.382,4.382,0,0,1,80.058,72.7H4.388A4.381,4.381,0,0,1,.617,66.085Z" transform="translate(1201.554 2915)" fill="#eb204a"/>
    <path id="Path_293" data-name="Path 293" d="M17.72,2.215a4.41,4.41,0,0,1,7.649,0L42.5,32.062a4.41,4.41,0,0,1-3.825,6.6H4.416a4.41,4.41,0,0,1-3.825-6.6Z" transform="translate(1149.347 2949)" fill="#f2edf2"/>
  </g>
</svg>
