<svg xmlns="http://www.w3.org/2000/svg" width="70.016" height="81.331" viewBox="0 0 70.016 81.331">
  <g id="Path_294" data-name="Path 294" transform="translate(70.016) rotate(90)" fill="none">
    <path d="M37.034,2.071a4.22,4.22,0,0,1,7.263,0L80.737,63.647A4.22,4.22,0,0,1,77.1,70.016H4.226A4.22,4.22,0,0,1,.595,63.647Z" stroke="none"/>
    <path d="M 40.6656494140625 15.56948852539062 L 14.36321258544922 60.01639556884766 L 66.96809387207031 60.01639556884766 L 40.6656494140625 15.56948852539062 M 40.66565322875977 -7.62939453125e-06 C 42.072998046875 -7.62939453125e-06 43.48033905029297 0.6902618408203125 44.29729843139648 2.070793151855469 L 80.73661041259766 63.64739608764648 C 82.40127563476562 66.46041870117188 80.37363433837891 70.01639556884766 77.10498809814453 70.01639556884766 L 4.226318359375 70.01639556884766 C 0.9576568603515625 70.01639556884766 -1.069969177246094 66.46041870117188 0.594696044921875 63.64739608764648 L 37.03400802612305 2.070793151855469 C 37.85096740722656 0.6902618408203125 39.25830841064453 -7.62939453125e-06 40.66565322875977 -7.62939453125e-06 Z" stroke="none" fill="#f2edf2"/>
  </g>
</svg>
