<svg xmlns="http://www.w3.org/2000/svg" width="87.579" height="80.135" viewBox="0 0 87.579 80.135">
  <g id="Group_852" data-name="Group 852" transform="translate(17.858 80.135) rotate(-90)">
    <path id="Path_1" data-name="Path 1" d="M25.666,47.088a2.925,2.925,0,0,0,5.034,0L55.953,4.414A2.925,2.925,0,0,0,53.436,0H2.929A2.925,2.925,0,0,0,.412,4.414Z" transform="translate(31.611 63.086) rotate(-90)" fill="#eb204a"/>
    <path id="Path_2" data-name="Path 2" d="M13.153,27.058a3.273,3.273,0,0,0,5.678,0L31.545,4.9A3.273,3.273,0,0,0,28.707,0H3.278A3.273,3.273,0,0,0,.439,4.9Z" transform="translate(28.702 37.736) rotate(90)" fill="#9b8fbd"/>
    <path id="Polygon_3" data-name="Polygon 3" d="M9.47,2.991a2,2,0,0,1,3.462,0l7.732,13.359a2,2,0,0,1-1.731,3H3.468a2,2,0,0,1-1.731-3Z" transform="translate(51.702 -17.858) rotate(90)" fill="#e7e4e8"/>
  </g>
</svg>
