<svg xmlns="http://www.w3.org/2000/svg" width="60.248" height="50.278" viewBox="0 0 60.248 50.278">
  <g id="Path_290" data-name="Path 290" fill="none">
    <path d="M27.434,1.487a3.177,3.177,0,0,1,5.38,0L59.808,45.7a3.031,3.031,0,0,1-2.69,4.573H3.131A3.031,3.031,0,0,1,.441,45.7Z" stroke="none"/>
    <path d="M 30.1240177154541 12.43381118774414 L 11.90517044067383 42.27795791625977 L 48.34285736083984 42.27795791625977 L 30.1240177154541 12.43381118774414 M 30.12401962280273 -3.814697265625e-06 C 31.16654205322266 -3.814697265625e-06 32.20906066894531 0.49566650390625 32.81423950195312 1.487007141113281 L 59.8075065612793 45.70446014404297 C 61.04065322875977 47.72444152832031 59.53861999511719 50.27795791625977 57.11730575561523 50.27795791625977 L 3.130756378173828 50.27795791625977 C 0.7094039916992188 50.27795791625977 -0.7926101684570312 47.72444152832031 0.440521240234375 45.70446014404297 L 27.43378829956055 1.487007141113281 C 28.03897094726562 0.49566650390625 29.08149719238281 -3.814697265625e-06 30.12401962280273 -3.814697265625e-06 Z" stroke="none" fill="#f2edf2"/>
  </g>
</svg>
