<svg xmlns="http://www.w3.org/2000/svg" width="72.698" height="113.865" viewBox="0 0 72.698 113.865">
  <g id="Group_849" data-name="Group 849" transform="translate(1487.354 -1116.5) rotate(90)">
    <g id="Group_844" data-name="Group 844" transform="translate(1230.365 1414.656) rotate(90)">
      <path id="Path_1" data-name="Path 1" d="M38.452,2.15a4.382,4.382,0,0,1,7.541,0L83.829,66.085A4.382,4.382,0,0,1,80.058,72.7H4.388A4.381,4.381,0,0,1,.617,66.085Z" transform="translate(72.698 29.419) rotate(90)" fill="#654d84"/>
      <path id="Path_2" data-name="Path 2" d="M17.607,2.2a4.382,4.382,0,0,1,7.6,0L42.226,31.858a4.382,4.382,0,0,1-3.8,6.562H4.388a4.382,4.382,0,0,1-3.8-6.562Z" transform="translate(15.193 42.814) rotate(-90)" fill="#ab234a"/>
    </g>
  </g>
</svg>
