<svg xmlns="http://www.w3.org/2000/svg" width="135.997" height="165.601" viewBox="0 0 135.997 165.601">
  <g id="Group_850" data-name="Group 850" transform="translate(135.997) rotate(90)">
    <g id="Group_844" data-name="Group 844" transform="translate(0 88.49) rotate(-90)">
      <path id="Path_1" data-name="Path 1" d="M46.806,85.873a5.333,5.333,0,0,0,9.18,0L102.039,8.049A5.333,5.333,0,0,0,97.45,0H5.341A5.333,5.333,0,0,0,.752,8.049Z" transform="translate(0 102.791) rotate(-90)" fill="#9c234a"/>
      <path id="Path_2" data-name="Path 2" d="M21.432,44.087a5.333,5.333,0,0,0,9.252,0L51.4,7.988A5.333,5.333,0,0,0,46.774,0H5.341A5.333,5.333,0,0,0,.715,7.988Z" transform="translate(-0.741 113.486) rotate(90)" fill="#55345d"/>
    </g>
  </g>
</svg>
