<svg id="Layer_1" enable-background="new 0 0 512 512" height="" viewBox="0 0 512 512" width="" xmlns="http://www.w3.org/2000/svg"><path d="m436.768 0h-264.393c-4.226 0-8.279 1.671-11.277 4.649l-97.142 96.513c-3.023 3.004-4.724 7.089-4.724 11.351v383.488c0 8.837 7.163 16 16 16h361.535c8.837 0 16-7.163 16-16v-480.001c.001-8.837-7.163-16-15.999-16zm-280.393 54.45v42.057h-42.332zm264.393 425.551h-329.536v-351.494h81.143c8.837 0 16-7.164 16-16v-80.507h232.393zm-182.25-402.406c0-8.836 7.163-16 16-16h100.541c8.837 0 16 7.164 16 16s-7.163 16-16 16h-100.541c-8.837 0-16-7.164-16-16zm132.541 59.25c0 8.836-7.163 16-16 16h-100.541c-8.837 0-16-7.164-16-16s7.163-16 16-16h100.541c8.837 0 16 7.163 16 16zm-115.059 55.139c-54.232 0-98.354 44.12-98.354 98.351 0 29.742 15.918 49.739 28.708 65.808 10.559 13.264 17.015 21.886 16.726 31.579-.005.159-.007.318-.007.478v24.574c0 20.291 16.508 36.799 36.798 36.799h32.256c20.291 0 36.8-16.508 36.8-36.799v-24.47c.148-10.262 6.589-18.928 17.072-32.199 12.634-15.992 28.356-35.896 28.356-65.77-.001-54.231-44.123-98.351-98.355-98.351zm16.126 225.588h-32.256c-2.646 0-4.798-2.152-4.798-4.799v-12.711h41.854v12.711c0 2.647-2.154 4.799-4.8 4.799zm28.762-81.303c-7.408 9.378-15.47 19.593-20.1 31.794h-49.209c-4.518-12.158-12.681-22.419-20.188-31.85-11.183-14.048-21.745-27.317-21.745-45.878 0-36.586 29.767-66.351 66.354-66.351s66.354 29.765 66.354 66.351c0 18.76-10.426 31.959-21.466 45.934z"/></svg>